<svg version="1.1" xmlns="http://www.w3.org/2000/svg" xmlns:xlink="http://www.w3.org/1999/xlink" viewBox="0 0 24 24" enable-background="new 0 0 24 24" xml:space="preserve" class="indicator correct">
	<path class="mark" fill="#3E8E17" stroke-width="5" d="M20.6,5.7c-0.5-0.5-1.3-0.5-1.8,0L9,15.5l-2.4-3.2c-0.4-0.6-1.3-0.7-1.8-0.2h0c-0.6,0.4-0.7,1.3-0.2,1.8l3.3,4.3c0.1,0.2,0.3,0.3,0.5,0.4c0,0,0,0,0,0c0.1,0,0.1,0,0.2,0.1c0,0,0,0,0.1,0c0,0,0.1,0,0.1,0c0,0,0.1,0,0.1,0c0,0,0.1,0,0.1,0c0.1,0,0.1,0,0.2,0c0,0,0,0,0.1,0c0.1,0,0.1,0,0.2-0.1c0,0,0,0,0,0c0.1-0.1,0.3-0.1,0.4-0.2L20.6,7.5C21.1,7,21.1,6.2,20.6,5.7z"/>
</svg>