<svg xmlns="http://www.w3.org/2000/svg" xmlns:xlink="http://www.w3.org/1999/xlink" version="1.1" width="92" height="92" viewBox="0 0 92 92" xml:space="preserve">
	<path d="M 78.052 14.538 H 11.948 c -1.104 0 -2 -0.896 -2 -2 s 0.896 -2 2 -2 h 66.104 c 1.104 0 2 0.896 2 2 S 79.156 14.538 78.052 14.538 z" stroke-linecap="round" fill="#ad6964" />
	<path d="M 57.711 14.538 H 32.289 c -1.104 0 -2 -0.896 -2 -2 V 7.36 c 0 -4.059 3.302 -7.36 7.36 -7.36 h 14.703 c 4.058 0 7.359 3.302 7.359 7.36 v 5.178 C 59.711 13.643 58.815 14.538 57.711 14.538 z M 34.289 10.538 h 21.422 V 7.36 c 0 -1.853 -1.507 -3.36 -3.359 -3.36 H 37.649 c -1.853 0 -3.36 1.507 -3.36 3.36 V 10.538 z" stroke-linecap="round" fill="#ad6964" />
	<path d="M 73.771 19.39 c -0.378 -0.401 -0.904 -0.628 -1.455 -0.628 H 17.685 c -0.551 0 -1.077 0.227 -1.455 0.628 c -0.378 0.4 -0.574 0.939 -0.542 1.489 l 3.637 62.119 C 19.555 86.924 22.816 90 26.75 90 h 36.499 c 3.934 0 7.195 -3.076 7.427 -7.003 l 3.637 -62.119 C 74.344 20.329 74.148 19.79 73.771 19.39 z M 32.777 76.099 c -0.04 0.003 -0.079 0.004 -0.119 0.004 c -1.051 0 -1.933 -0.82 -1.995 -1.883 l -2.29 -39.114 c -0.064 -1.103 0.777 -2.049 1.88 -2.113 c 1.088 -0.062 2.049 0.777 2.113 1.88 l 2.29 39.113 C 34.721 75.088 33.88 76.034 32.777 76.099 z M 47 74.103 c 0 1.104 -0.896 2 -2 2 s -2 -0.896 -2 -2 V 34.989 c 0 -1.104 0.896 -2 2 -2 s 2 0.896 2 2 V 74.103 z M 59.336 74.22 c -0.062 1.063 -0.943 1.883 -1.994 1.883 c -0.039 0 -0.079 -0.001 -0.119 -0.004 c -1.103 -0.064 -1.944 -1.011 -1.879 -2.113 l 2.29 -39.113 c 0.063 -1.103 0.993 -1.952 2.113 -1.88 c 1.103 0.064 1.944 1.011 1.88 2.113 L 59.336 74.22 z"  stroke-linecap="round" fill="#ad6964" />
</svg>